/* XPM */
static char * coins_xpm[] = {
"32 256 6 1",
" 	c None",
".	c #893918",
"+	c #E4854D",
"@	c #C97050",
"#	c #F8C79C",
"$	c #ADABAC",
"                                ",
"                                ",
"                                ",
"                                ",
"              ....              ",
"             .++++.             ",
"             .++++@.            ",
"            .#####@.            ",
"            .#####..            ",
"            .#####..            ",
"            .#####..            ",
"            .####@..            ",
"            .####@+.            ",
"            .####@#.            ",
"            .@###@#.            ",
"            .@@@@@#.            ",
"            .++++@@.            ",
"            .++++@@.            ",
"            .++++@@.            ",
"            .++++@.             ",
"             ..@@@.             ",
"               ...              ",
"                                ",
"                                ",
"                                ",
"                                ",
"                                ",
"             $$$$$$             ",
"           $$$$$$$$$$           ",
"          $$$$$$$$$$$$          ",
"           $$$$$$$$$$           ",
"             $$$$$$             ",
"                                ",
"                                ",
"                                ",
"              ....              ",
"             .++++...           ",
"            .#+++++@@.          ",
"           .#####@@@@.          ",
"           .#####@@@@@.         ",
"          .#####@@..@@.         ",
"          .####@@@@.@@.         ",
"          .####@@@@.@@.         ",
"         .++###@@@@+@@.         ",
"         .++++@@@@@#@@.         ",
"         .@@++@@@@@#@.          ",
"         .+++@@@@@##@.          ",
"         .++++@@@.#@@.          ",
"         .++++@@.+@@.           ",
"          .+++@@@@@.            ",
"           .@@@@@@@.            ",
"            ...@@..             ",
"               ..               ",
"                                ",
"                                ",
"                                ",
"                                ",
"                                ",
"                                ",
"             $$$$$$             ",
"           $$$$$$$$$$           ",
"           $$$$$$$$$$           ",
"           $$$$$$$$$$           ",
"             $$$$$$             ",
"                                ",
"                                ",
"               ....             ",
"            ...++++.            ",
"           .++++++++.           ",
"          .++++++@@@@.          ",
"         .+++++@@@@@@@.         ",
"        .++++@@@@@@@@@@.        ",
"        .+++@@@@@@@.@@@@.       ",
"        .#++@@@@@@@@.@@@.       ",
"       .###@@@@@@@@@.@@@.       ",
"       .###@@@@@@@@@.@@@.       ",
"       .##@@@@@@@@@@.@@.        ",
"        .#@@@@@@@@@.+@@.        ",
"        .#@@@.@@@@.+@@.         ",
"         ..@@@...+@@@@.         ",
"          .@@@@@@@@@@.          ",
"           .@@@@@@@..           ",
"            ..@@@..             ",
"              ...               ",
"                                ",
"                                ",
"                                ",
"                                ",
"                                ",
"                                ",
"                                ",
"              $$$$              ",
"           $$$$$$$$$$           ",
"           $$$$$$$$$$           ",
"           $$$$$$$$$$           ",
"              $$$$              ",
"                                ",
"              ....              ",
"            ..++++..            ",
"          ..++++++++..          ",
"         .+++++++++++@.         ",
"        .+++@####@@@+@@.        ",
"        .++@####@@@@@@@.        ",
"        .+@####@@@@@@@@.        ",
"       .#@####@@@@@@@@@@.       ",
"       .#####@@@@@@@@@@@.       ",
"       .@###+@@@@@@@@@@@.       ",
"       .###@@@@@@@@@@@@@.       ",
"        .#@@@@@@@@@@@@@.        ",
"        .@@@.@@@@@@@@@@.        ",
"         .@@@..@@@@@@@.         ",
"         .@@@@@@@@@@@@.         ",
"          ..@@@@@@@@..          ",
"            ..@@@@..            ",
"              ....              ",
"                                ",
"                                ",
"                                ",
"                                ",
"                                ",
"                                ",
"                                ",
"                                ",
"              $$$$              ",
"            $$$$$$$$            ",
"           $$$$$$$$$$           ",
"            $$$$$$$$            ",
"              $$$$              ",
"                                ",
"             .....              ",
"            .+++++..            ",
"           .++++++++.           ",
"          .++++++++++.          ",
"         .+++++++#++++.         ",
"        .+++++++###++@@.        ",
"        .+++@++#####@@@.        ",
"       .+++@++######+@@@.       ",
"       .+++@+######++@@@.       ",
"       .+++@######++++@@.       ",
"       .+++.#####++@++@@.       ",
"        .+#.@###++++++@.        ",
"        .###+@#+++@+++@.        ",
"         .####+@@@++++.         ",
"          .##++++++++.          ",
"           .++++++++.           ",
"            ...+++..            ",
"               ...              ",
"                                ",
"                                ",
"                                ",
"                                ",
"                                ",
"                                ",
"                                ",
"                                ",
"              $$$$              ",
"            $$$$$$$$            ",
"           $$$$$$$$$$           ",
"            $$$$$$$$            ",
"              $$$$              ",
"                                ",
"                                ",
"              ...               ",
"            ..+++..             ",
"          ..+++++++.            ",
"         .@@@@@+++++.           ",
"         .@@@@@@+++++.          ",
"        .@@@.@@@@++++.          ",
"        .@@.@@@@@@++++.         ",
"        .@@.@@@@@@++@#.         ",
"        .@@.@@@@@@@@###.        ",
"        .@@.@@@@@@@####.        ",
"         .@@.@@@@@#####.        ",
"         .@@@@@@@#####@.        ",
"          .@@@@@#####@@.        ",
"          .@@@@..###@@.         ",
"           .@@#####@@@.         ",
"            .#####@@..          ",
"             ..##@..            ",
"               ...              ",
"                                ",
"                                ",
"                                ",
"                                ",
"                                ",
"                                ",
"                                ",
"              $$$$              ",
"           $$$$$$$$$$           ",
"           $$$$$$$$$$           ",
"           $$$$$$$$$$           ",
"              $$$$              ",
"                                ",
"                                ",
"                                ",
"              ....              ",
"            ..++++.             ",
"           .##+++++.            ",
"          .###++###.            ",
"          .#########.           ",
"          .#.#######.           ",
"          .#.#######.           ",
"          .#.#######.           ",
"          .#.###+++++.          ",
"          .#@###+@@@@.          ",
"           .#####@@@@.          ",
"           .#####@@@@.          ",
"           .#####@@@@.          ",
"            .#@##@@@@.          ",
"            .####@@@@.          ",
"             .##@@@@.           ",
"             .##@...            ",
"              ...               ",
"                                ",
"                                ",
"                                ",
"                                ",
"                                ",
"                                ",
"             $$$$$$             ",
"           $$$$$$$$$$           ",
"           $$$$$$$$$$           ",
"           $$$$$$$$$$           ",
"             $$$$$$             ",
"                                ",
"                                ",
"                                ",
"                                ",
"              ....              ",
"             .++++.             ",
"             .++++.             ",
"             .####.             ",
"             .####.             ",
"             .####.             ",
"             .####.             ",
"             .####.             ",
"             .####.             ",
"             .####.             ",
"             .@@@@.             ",
"             .@@@@.             ",
"             .++++.             ",
"             .++++.             ",
"             .++++.             ",
"             .++++.             ",
"             .@@@@.             ",
"              ....              ",
"                                ",
"                                ",
"                                ",
"                                ",
"                                ",
"             $$$$$$             ",
"           $$$$$$$$$$           ",
"          $$$$$$$$$$$$          ",
"           $$$$$$$$$$           ",
"             $$$$$$             "};
