/* XPM */
static char * capy_up_alpha_xpm[] = {
"64 64 5 1",
" 	c None",
".	c #000000",
"+	c #885B39",
"@	c #D78244",
"#	c #4F2C14",
"                                                                ",
"                                                                ",
"                                                                ",
"                                                                ",
"                                                                ",
"                                                                ",
"                                                                ",
"                                                                ",
"                                                                ",
"                                                                ",
"                                                                ",
"                        ......    ......                        ",
"                        ......    ......                        ",
"                        ..++..    ..++..                        ",
"                        ..++..    ..++..                        ",
"                        ..++........++..                        ",
"                        ..++........++..                        ",
"                        ..@@@@@@@@@@@@..                        ",
"                        ..@@@@@@@@@@@@..                        ",
"                        ..@@@@@@@@@@@@..                        ",
"                        ..@@@@@@@@@@@@..                        ",
"                        ..@@@@@@@@@@@@..                        ",
"                        ..@@@@@@@@@@@@..                        ",
"                        ..@@@@@@@@@@@@..                        ",
"                        ..@@@@@@@@@@@@..                        ",
"                        ..@@@@@@@@@@@@..                        ",
"                        ..@@@@@@@@@@@@..                        ",
"                        ................                        ",
"                        ................                        ",
"                      ....@@@@@@@@@@@@....                      ",
"                      ....@@@@@@@@@@@@....                      ",
"                      ..@@@@@@@@@@@@@@@@..                      ",
"                      ..@@@@@@@@@@@@@@@@..                      ",
"                      ..@@@@@@@@@@@@@@@@..                      ",
"                      ..@@@@@@@@@@@@@@@@..                      ",
"                      ..++@@@@@@@@@@@@++..                      ",
"                      ..++@@@@@@@@@@@@++..                      ",
"                      ..@@@@@@@@@@@@@@@@..                      ",
"                      ..@@@@@@@@@@@@@@@@..                      ",
"                      ..##@@@@@@@@@@@@##..                      ",
"                      ..##@@@@@@@@@@@@##..                      ",
"                      ..####@@@@@@@@####..                      ",
"                      ..####@@@@@@@@####..                      ",
"                      ..####......######..                      ",
"                      ..####......######..                      ",
"                      ..####......######..                      ",
"                      ..####......######..                      ",
"                      ..####......######..                      ",
"                      ..####......######..                      ",
"                      ....##..  ....####..                      ",
"                      ....##..  ....####..                      ",
"                        ......    ........                      ",
"                        ......    ........                      ",
"                                                                ",
"                                                                ",
"                                                                ",
"                                                                ",
"                                                                ",
"                                                                ",
"                                                                ",
"                                                                ",
"                                                                ",
"                                                                ",
"                                                                "};
