/* XPM */
static char * capy_left_xpm[] = {
"64 64 8 1",
" 	c #7D955B",
".	c #83A76A",
"+	c #6A865B",
"@	c #62765A",
"#	c #000000",
"$	c #4F2C14",
"%	c #885B39",
"&	c #D78244",
"     ..              ..              ..              ..         ",
"++        .     ++        .     ++        .     ++        .     ",
"+@+             +@+             +@+             +@+             ",
" ++              ++              ++              ++             ",
"       ..              ..              ..              ..       ",
"       ..              ..              ..              ..       ",
"  ++              ++              ++              ++            ",
"  +@+     .   ..  +@+     .   ..  +@+     .   ..  +@+     .   ..",
"   ++ ++           ++ ++           ++ ++           ++ ++        ",
"      ++ ++           ++ ++           ++ ++           ++ ++     ",
" .       +@+     .       +@+     .       +@+     .       +@+    ",
"          ++              ++              ++              ++    ",
"              ++        ########              ++              ++",
"     ..              .. ########     ..              ..         ",
"++        .     ++      ##$$$$##++        .     ++        .     ",
"+@+             +@+     ##$$$$##+@+             +@+             ",
"     ..   ################$$%%##     ..              ..         ",
"++        ################$$%%##++        .     ++        .     ",
"+@+     ####%%%%&&&&&&&&&&&&%%####+             +@+             ",
" ++     ####%%%%&&&&&&&&&&&&%%####+              ++             ",
"       .##%%%%%%&&&&####&&&&&&&&####   ..              ..       ",
"       .##%%%%%%&&&&####&&&&&&&&####   ..              ..       ",
"  ++    ##%%%%&&&&&&&&&&&&&&&&&&&&####            ++            ",
"  +@+   ##%%%%&&&&&&&&&&&&&&&&&&&&####    .   ..  +@+     .   ..",
"   ++ ++##%%&&&&&&&&&&&&&&&&&&&&&&&&############## ++ ++        ",
"      ++##%%&&&&&&&&&&&&&&&&&&&&&&&&##############    ++ ++     ",
" .      ##%%&&&&&&&&&&&&&&&&&&&&&&&&&&&&&&&&&&&&####     +@+    ",
"        ##%%&&&&&&&&&&&&&&&&&&&&&&&&&&&&&&&&&&&&####      ++    ",
"        ################&&&&&&&&&&&&&&&&&&&&&&&&&&##          ++",
"     .. ################&&&&&&&&&&&&&&&&&&&&&&&&&&## ..         ",
"++        .     ++    ####&&&&&&&&&&&&&&%%%%&&&&&&##      .     ",
"+@+             +@+   ####&&&&&&&&&&&&&&%%%%&&&&&&##            ",
"     ..              .. ##&&&&&&&&&&&&&&&&&&&&&&&&## ..         ",
"++        .     ++      ##&&&&&&&&&&&&&&&&&&&&&&&&##      .     ",
"+@+             +@+     ##&&&&&&&&&&%%%%&&&&%%%%&&##            ",
" ++              ++     ##&&&&&&&&&&%%%%&&&&%%%%&&##            ",
"       ..              .####&&&&&&&&&&&&&&&&&&&&&&#### ..       ",
"       ..              .####&&&&&&&&&&&&&&&&&&&&&&#### ..       ",
"  ++              ++      ##&&&&&&&&&&&&&&&&&&&&&&&&##          ",
"  +@+     .   ..  +@+     ##&&&&&&&&&&&&&&&&&&&&&&&&##    .   ..",
"   ++ ++           ++ ++  ##$$&&&&########&&&&&&&&$$####        ",
"      ++ ++           ++ +##$$&&&&########&&&&&&&&$$#### ++     ",
" .       +@+     .      ####$$$$######  ######&&$$$$$$## +@+    ",
"          ++            ####$$$$######  ######&&$$$$$$##  ++    ",
"              ++        ##$$$$$$######    ######$$$$$$##      ++",
"     ..              .. ##$$$$$$######.   ######$$$$$$##        ",
"++        .     ++      ##$$$$########  ########$$$$####  .     ",
"+@+             +@+     ##$$$$########  ########$$$$####        ",
"     ..              .. ##$$####  ####. ####  ##$$$$##.         ",
"++        .     ++      ##$$####++####  ####  ##$$$$##    .     ",
"+@+             +@+     ######  +@+           ########          ",
" ++              ++     ######   ++           ########          ",
"       ..              ..              ..              ..       ",
"       ..              ..              ..              ..       ",
"  ++              ++              ++              ++            ",
"  +@+     .   ..  +@+     .   ..  +@+     .   ..  +@+     .   ..",
"   ++ ++           ++ ++           ++ ++           ++ ++        ",
"      ++ ++           ++ ++           ++ ++           ++ ++     ",
" .       +@+     .       +@+     .       +@+     .       +@+    ",
"          ++              ++              ++              ++    ",
"              ++              ++              ++              ++",
"     ..              ..              ..              ..         ",
"++        .     ++        .     ++        .     ++        .     ",
"+@+             +@+             +@+             +@+             "};
