/* XPM */
static char * capy_down_xpm[] = {
"64 64 8 1",
" 	c #7D955B",
".	c #83A76A",
"+	c #6A865B",
"@	c #62765A",
"#	c #000000",
"$	c #4F2C14",
"%	c #D78244",
"&	c #885B39",
"     ..              ..              ..              ..         ",
"++        .     ++        .     ++        .     ++        .     ",
"+@+             +@+             +@+             +@+             ",
" ++              ++              ++              ++             ",
"       ..              ..              ..              ..       ",
"       ..              ..              ..              ..       ",
"  ++              ++              ++              ++            ",
"  +@+     .   ..  +@+     .   ..  +@+     .   ..  +@+     .   ..",
"   ++ ++           ++ ++           ++ ++           ++ ++        ",
"      ++ ++           ++ ++           ++ ++           ++ ++     ",
" .       +@+     .       +@+     .       +@+     .       +@+    ",
"          ++            ######    ######  ++              ++    ",
"              ++        ######++  ######      ++              ++",
"     ..              .. ##$$##    ##$$##             ..         ",
"++        .     ++      ##$$##  ++##$$##  .     ++        .     ",
"+@+             +@+     ##$$########$$##        +@+             ",
"     ..              .. ##$$########$$##             ..         ",
"++        .     ++      ##%%%%&&&&%%%%##  .     ++        .     ",
"+@+             +@+     ##%%%%&&&&%%%%##        +@+             ",
" ++              ++     ####&&&&&&&&####         ++             ",
"       ..              .####&&&&&&&&####.              ..       ",
"       ..              .##%%&&&&&&&&%%##.              ..       ",
"  ++              ++    ##%%&&&&&&&&%%##          ++            ",
"  +@+     .   ..  +@+   ##%%&&&&&&&&%%##  .   ..  +@+     .   ..",
"   ++ ++           ++ ++##%%&&&&&&&&%%##           ++ ++        ",
"      ++ ++           ++################ ++           ++ ++     ",
" .       +@+     .      ################ +@+     .       +@+    ",
"          ++            ##%%%%%%%%%%%%##  ++              ++    ",
"              ++        ##%%%%%%%%%%%%##      ++              ++",
"     ..              .####%%%%%%%%%%%%####           ..         ",
"++        .     ++    ####%%%%%%%%%%%%####.     ++        .     ",
"+@+             +@+   ##%%%%%%%%%%%%%%%%##      +@+             ",
"     ..              .##%%%%%%%%%%%%%%%%##           ..         ",
"++        .     ++    ##%%%%%%%%%%%%%%%%##.     ++        .     ",
"+@+             +@+   ##%%%%%%%%%%%%%%%%##      +@+             ",
" ++              ++   ##%%%%%%%%%%%%%%%%##       ++             ",
"       ..             ##%%%%%%%%%%%%%%%%##             ..       ",
"       ..             ##%%%%%%%%%%%%%%%%##             ..       ",
"  ++              ++  ##%%%%%%%%%%%%%%%%##        ++            ",
"  +@+     .   ..  +@+ ##$$%%%%%%%%%%%%$$##.   ..  +@+     .   ..",
"   ++ ++           ++ ##$$%%%%%%%%%%%%$$##         ++ ++        ",
"      ++ ++           ##$$$$%%%%%%%%$$$$##+           ++ ++     ",
" .       +@+     .    ##$$$$%%%%%%%%$$$$##@+     .       +@+    ",
"          ++          ##$$$$######$$$$$$##++              ++    ",
"              ++      ##$$$$######$$$$$$##    ++              ++",
"     ..              .##$$$$######$$$$$$##           ..         ",
"++        .     ++    ##$$$$######$$$$$$##.     ++        .     ",
"+@+             +@+   ##$$$$######$$$$$$##      +@+             ",
"     ..              .##$$$$######$$$$$$##           ..         ",
"++        .     ++    ####$$##  ####$$$$##.     ++        .     ",
"+@+             +@+   ####$$##  ####$$$$##      +@+             ",
" ++              ++     ######   +########       ++             ",
"       ..              .######    ########             ..       ",
"       ..              ..              ..              ..       ",
"  ++              ++              ++              ++            ",
"  +@+     .   ..  +@+     .   ..  +@+     .   ..  +@+     .   ..",
"   ++ ++           ++ ++           ++ ++           ++ ++        ",
"      ++ ++           ++ ++           ++ ++           ++ ++     ",
" .       +@+     .       +@+     .       +@+     .       +@+    ",
"          ++              ++              ++              ++    ",
"              ++              ++              ++              ++",
"     ..              ..              ..              ..         ",
"++        .     ++        .     ++        .     ++        .     ",
"+@+             +@+             +@+             +@+             "};
