/* XPM */
static char * carrot_xpm[] = {
"64 64 276 2",
"  	c #7D955B",
". 	c #83A76A",
"+ 	c #6A865B",
"@ 	c #62765A",
"# 	c #090B02",
"$ 	c #090C02",
"% 	c #0A0D02",
"& 	c #010200",
"* 	c #1D2501",
"= 	c #050800",
"- 	c #292F0B",
"; 	c #98AC3D",
"> 	c #9AAE3F",
", 	c #3E4615",
"' 	c #9AAD3F",
") 	c #9BAF40",
"! 	c #3B4414",
"~ 	c #060800",
"{ 	c #1B2300",
"] 	c #738B07",
"^ 	c #2F3A00",
"/ 	c #8DA038",
"( 	c #869F1A",
"_ 	c #728717",
": 	c #91A439",
"< 	c #9FB341",
"[ 	c #9DB141",
"} 	c #3C4514",
"| 	c #000000",
"1 	c #566705",
"2 	c #5F7306",
"3 	c #7F9809",
"4 	c #657906",
"5 	c #829B14",
"6 	c #6D820C",
"7 	c #95A839",
"8 	c #89A21D",
"9 	c #839B16",
"0 	c #404B11",
"a 	c #5B6D06",
"b 	c #7D9709",
"c 	c #697D07",
"d 	c #657907",
"e 	c #6C8012",
"f 	c #9AAE3B",
"g 	c #87A018",
"h 	c #819B09",
"i 	c #667B07",
"j 	c #647807",
"k 	c #242C01",
"l 	c #400F00",
"m 	c #431000",
"n 	c #410E00",
"o 	c #696C06",
"p 	c #677B07",
"q 	c #687C0D",
"r 	c #97AB3A",
"s 	c #869F15",
"t 	c #829C0A",
"u 	c #6A8007",
"v 	c #697E07",
"w 	c #7E9708",
"x 	c #303A01",
"y 	c #090100",
"z 	c #E34B00",
"A 	c #F25000",
"B 	c #D54D00",
"C 	c #6E7707",
"D 	c #677A0A",
"E 	c #94A739",
"F 	c #88A11B",
"G 	c #6C8207",
"H 	c #7F9909",
"I 	c #819A09",
"J 	c #303B01",
"K 	c #431100",
"L 	c #E74D01",
"M 	c #F76824",
"N 	c #FE6F29",
"O 	c #FF6F29",
"P 	c #FF6F2A",
"Q 	c #FD590B",
"R 	c #F75600",
"S 	c #D44D01",
"T 	c #88720A",
"U 	c #7F9709",
"V 	c #687D07",
"W 	c #7C9508",
"X 	c #617406",
"Y 	c #232C01",
"Z 	c #CF4500",
"` 	c #FA5401",
" .	c #FF6A23",
"..	c #FF6E28",
"+.	c #FF5A0A",
"@.	c #FD5500",
"#.	c #DE4A00",
"$.	c #D74600",
"%.	c #757506",
"&.	c #607306",
"*.	c #607307",
"=.	c #060A00",
"-.	c #290700",
";.	c #EF4F00",
">.	c #FF5500",
",.	c #FF5603",
"'.	c #FF5704",
").	c #FD5604",
"!.	c #FD5501",
"~.	c #FC5400",
"{.	c #DD4900",
"].	c #757006",
"^.	c #252D01",
"/.	c #5C6E06",
"(.	c #273001",
"_.	c #DC4901",
":.	c #FE5601",
"<.	c #FF5601",
"[.	c #FE5500",
"}.	c #DC4A00",
"|.	c #D64800",
"1.	c #D54700",
"2.	c #FC5300",
"3.	c #8C3600",
"4.	c #1D0800",
"5.	c #121700",
"6.	c #561800",
"7.	c #E84D00",
"8.	c #FF712B",
"9.	c #FF5908",
"0.	c #FD5400",
"a.	c #B03A00",
"b.	c #862D00",
"c.	c #CA4400",
"d.	c #F55200",
"e.	c #D64700",
"f.	c #8C2F00",
"g.	c #1D0400",
"h.	c #D24500",
"i.	c #F85300",
"j.	c #FF5501",
"k.	c #FF6B24",
"l.	c #FF5B0E",
"m.	c #FA5300",
"n.	c #A83700",
"o.	c #C74200",
"p.	c #963200",
"q.	c #832C00",
"r.	c #2A0800",
"s.	c #F35100",
"t.	c #FE5603",
"u.	c #DF4A00",
"v.	c #D44700",
"w.	c #8B2E00",
"x.	c #872D00",
"y.	c #812B00",
"z.	c #542209",
"A.	c #E75008",
"B.	c #FF5808",
"C.	c #F25100",
"D.	c #FB5300",
"E.	c #DD4A00",
"F.	c #D04500",
"G.	c #8A2E00",
"H.	c #802B00",
"I.	c #250800",
"J.	c #712E0D",
"K.	c #E76222",
"L.	c #FF6D26",
"M.	c #FF702A",
"N.	c #FF5600",
"O.	c #AC3900",
"P.	c #BD3F00",
"Q.	c #F45100",
"R.	c #D24600",
"S.	c #923100",
"T.	c #852D00",
"U.	c #7A2800",
"V.	c #370E00",
"W.	c #290B02",
"X.	c #E96424",
"Y.	c #FE5C0F",
"Z.	c #FF6C25",
"`.	c #FF5A0D",
" +	c #F75200",
".+	c #A53700",
"++	c #892E00",
"@+	c #C64200",
"#+	c #CD4400",
"$+	c #973200",
"%+	c #7B2900",
"&+	c #310B00",
"*+	c #4E1400",
"=+	c #ED4F02",
"-+	c #FC5401",
";+	c #FB5400",
">+	c #FF5602",
",+	c #DB4900",
"'+	c #D34600",
")+	c #993300",
"!+	c #822B00",
"~+	c #7E2A00",
"{+	c #360E00",
"]+	c #130200",
"^+	c #682B0D",
"/+	c #F0570E",
"(+	c #E64D00",
"_+	c #CA4300",
":+	c #D94800",
"<+	c #C84300",
"[+	c #772700",
"}+	c #170300",
"|+	c #621B00",
"1+	c #E36324",
"2+	c #FF712A",
"3+	c #FF5A0C",
"4+	c #B93D00",
"5+	c #BC3F00",
"6+	c #EF5000",
"7+	c #CB4300",
"8+	c #862C00",
"9+	c #782800",
"0+	c #2B0900",
"a+	c #BE3E00",
"b+	c #F66621",
"c+	c #FF6E27",
"d+	c #FF5A0B",
"e+	c #953200",
"f+	c #C04000",
"g+	c #350D00",
"h+	c #0F0200",
"i+	c #742200",
"j+	c #E74C00",
"k+	c #F95300",
"l+	c #E04B00",
"m+	c #8F3000",
"n+	c #340D00",
"o+	c #7B2500",
"p+	c #F35810",
"q+	c #F05000",
"r+	c #BC3E00",
"s+	c #792700",
"t+	c #3E1000",
"u+	c #7F2600",
"v+	c #E7520C",
"w+	c #FF6923",
"x+	c #FF5B0D",
"y+	c #E14B00",
"z+	c #E04A00",
"A+	c #CA4200",
"B+	c #020000",
"C+	c #0F0100",
"D+	c #D44500",
"E+	c #FD661F",
"F+	c #852C00",
"G+	c #3A0E00",
"H+	c #180300",
"I+	c #913D14",
"J+	c #C44406",
"K+	c #ED4F00",
"L+	c #C34000",
"M+	c #832A00",
"N+	c #260800",
"O+	c #893912",
"P+	c #EF6320",
"Q+	c #E2520D",
"R+	c #B93C00",
"S+	c #AF3900",
"T+	c #651E00",
"U+	c #E55F20",
"V+	c #F8570B",
"W+	c #611C00",
"X+	c #0B0100",
"Y+	c #BF3E00",
"Z+	c #631C00",
"`+	c #010000",
"          . .                             . .                             . .                             . .                   ",
"+ +                 .           + +                 .           + +                 .           + +                 .           ",
"+ @ +                           + @ +                           + @ +                           + @ +                           ",
"  + +                             + +                             + +                             + +                           ",
"              . .                             . .                             . .                             . .               ",
"              . .                             . .                             . .                             . .               ",
"    + +                             + +                             + +                             + +                         ",
"    + @ +           .       . .     + @ +           .       . .     + @ +           .       . .     + @ +           .       . . ",
"      + +   + +                       + +   + +                       + +   + +                       + +   + +                 ",
"            + +   + +                       + +   + +                       + +   + +                       + +   + +           ",
"  .               + @ +           .               + @ +           .               + @ +           .               + @ +         ",
"                    + +                             + +                             + +                             + +         ",
"                            + +                             + +                             + +                             + + ",
"          . .                             . .                             . .                             . .                   ",
"+ +                 .           + +                 .           + +                 .           + +                 .           ",
"+ @ +                           + @ +                           + @ +                           + @ +                           ",
"          . .                             . .                             . .                             . .                   ",
"+ +                 .           + +                 .           + +               # $   % # &   + +                 .           ",
"+ @ +                           + @ +                           + @ +       * = - ; > , ' ) !   + @ +                           ",
"  + +                             + +                             + +   ~ { ] ^ / ( _ : < [ }     + +                           ",
"              . .                             . .                     | 1 2 3 4 5 6 7 8 9 0                   . .               ",
"              . .                             . .                     | a b c d e f g h i j k                 . .               ",
"    + +                             + +                           l m n o p d q r s t u v w x       + +                         ",
"    + @ +           .       . .     + @ +           .       . y | z A A B C D E F t G d H I J .     + @ +           .       . . ",
"      + +   + +                       + +   + +             K L M N O P Q R S T U V d W X Y           + +   + +                 ",
"            + +   + +                       + +   + +     | Z `  .......+.@.#.$.%.&.j *.=.                  + +   + +           ",
"  .               + @ +           .               + @ +   -.;.>.,.'.).).!.>.~.{.].^./.(.          .               + @ +         ",
"                    + +                             + + | _.:.<.<.[.}.|.1.2.[.#.3.4.5.+                             + +         ",
"                            + +                       6.7. ...8.O 9.0.a.b.c.d.e.f.g.        + +                             + + ",
"          . .                             . .       | h.i.j.,.k.l.>.>.m.n.f.o.p.q.g.                      . .                   ",
"+ +                 .           + +                 r.s.>.[.[.t.j.>.[.u.v.w.w.x.y.g..           + +                 .           ",
"+ @ +                           + @ +             z.A.B.<.z Z Z C.D.0.E.F.G.b.H.I.              + @ +                           ",
"          . .                             . .   J.K.L.M.l.N.O.G.P.v.Q.R.S.T.U.V.                          . .                   ",
"+ +                 .           + +           W.X.Y.<.Z.`.>. +.+++@+#+$+H.%+&+      .           + +                 .           ",
"+ @ +                           + @ +         *+=+-+;+>+>.>.,+'+)+++!+~+{+]+                    + @ +                           ",
"  + +                             + +       ^+/+>+(+_+7.Q.[.:+<+p.[+}+|                           + +                           ",
"              . .                         |+1+2+3+>.4+G.5+6+7+8+9+0+          . .                             . .               ",
"              . .                       g.a+b+c+d+~.i.e+x.f+x.g+h+            . .                             . .               ",
"    + +                             + + i+j+k+[.>.l+1.m+U.n+|       + +                             + +                         ",
"    + @ +           .       . .     + o+p+'.u.q+0.l+r+s+t+  . .     + @ +           .       . .     + @ +           .       . . ",
"      + +   + +                     u+v+w+x+y+_+z+A+6.B+              + +   + +                       + +   + +                 ",
"            + +   + +             C+D+E+9.k+e.F+G+H++                       + +   + +                       + +   + +           ",
"  .               + @ +           I+J+K+C.L+M+N+  + @ +           .               + @ +           .               + @ +         ",
"                    + +         O+P+Q+R+S+T+|       + +                             + +                             + +         ",
"                            + | U+V+#+W+X+                  + +                             + +                             + + ",
"          . .                 | Y+R+Z+    . .                             . .                             . .                   ",
"+ +                 .         `+| |                 .           + +                 .           + +                 .           ",
"+ @ +                           + @ +                           + @ +                           + @ +                           ",
"          . .                             . .                             . .                             . .                   ",
"+ +                 .           + +                 .           + +                 .           + +                 .           ",
"+ @ +                           + @ +                           + @ +                           + @ +                           ",
"  + +                             + +                             + +                             + +                           ",
"              . .                             . .                             . .                             . .               ",
"              . .                             . .                             . .                             . .               ",
"    + +                             + +                             + +                             + +                         ",
"    + @ +           .       . .     + @ +           .       . .     + @ +           .       . .     + @ +           .       . . ",
"      + +   + +                       + +   + +                       + +   + +                       + +   + +                 ",
"            + +   + +                       + +   + +                       + +   + +                       + +   + +           ",
"  .               + @ +           .               + @ +           .               + @ +           .               + @ +         ",
"                    + +                             + +                             + +                             + +         ",
"                            + +                             + +                             + +                             + + ",
"          . .                             . .                             . .                             . .                   ",
"+ +                 .           + +                 .           + +                 .           + +                 .           ",
"+ @ +                           + @ +                           + @ +                           + @ +                           "};
