/* XPM */
static char * digits_xpm[] = {
"16 160 11 1",
" 	c None",
".	c #000000",
"+	c #454946",
"@	c #FFFFFF",
"#	c #EFF6F9",
"$	c #DEECF2",
"%	c #CEE1EC",
"&	c #BDD8E5",
"*	c #ADCEDF",
"=	c #9CC3D8",
"-	c #8BB9D1",
"  ............  ",
" .............. ",
"..+@@@@@@@@@@+..",
"..@@@@@@@@@@@@..",
"..@@@@....@@@@..",
"..@@@@....@@@@..",
"..@@@@....@@@@..",
"..####....####..",
"..$$$$....$$$$..",
"..%%%%....%%%%..",
"..&&&&&&&&@&&&..",
"..************..",
"..============..",
"..+----------+..",
" .............. ",
"  ............  ",
"    ......      ",
"   ........     ",
"  ..+@@@@+..    ",
"  ..@@@@@@..    ",
"  ..@@@@@@..    ",
"  ..+@@@@@..    ",
"   ..+@@@@..    ",
"    ..####..    ",
"    ..$$$$..    ",
"    ..%%%%..    ",
"    ..&&&&..    ",
"   ...****...   ",
"  ...======...  ",
"  ...------...  ",
"   ..........   ",
"    ........    ",
"  ............  ",
" .............. ",
"...@@@@@@@@@@+..",
"...@@@@@@@@@@@..",
" .........@@@@..",
" .........@@@@..",
"..+@@@@@@@@@@@..",
"..###########+..",
"..$$$$......... ",
"..%%%%......... ",
"..&&&&&&&&&&&+..",
"..************..",
"..============..",
"..+----------+..",
" .............. ",
"  ............  ",
"  ............  ",
" .............. ",
"...@@@@@@@@@@+..",
"...@@@@@@@@@@@..",
" .........@@@@..",
"  ........@@@+..",
"    ..@@@@@@+.. ",
"    ..######+.. ",
"  ........$$$+..",
" .........%%%%..",
"..+&&&&&&&@&&&..",
"..************..",
"..============..",
"..+----------+..",
" .............. ",
"  ............  ",
"  ....  ....    ",
" ............   ",
"..+@@+..+@@+..  ",
"..@@@@..@@@@..  ",
"..@@@@..@@@@..  ",
"..@@@@..@@@@... ",
"..@@@@@@@@@@@...",
"..+##########...",
" .......$$$$... ",
"  ......%%%%..  ",
"      ..&&&&..  ",
"      ..****..  ",
"      ..====..  ",
"      ..+--+..  ",
"       ......   ",
"        ....    ",
"  ............  ",
" .............. ",
"..+@@@@@@@@@@...",
"..@@@@@@@@@@@...",
"..@@@@......... ",
"..@@@@......... ",
"..@@@@@@@@@@@+..",
"..+###########..",
" .........$$$$..",
" .........%%%%..",
"..+&&&&&&&@&&&..",
"..************..",
"..============..",
"..+----------+..",
" .............. ",
"  ............  ",
"  ..........    ",
" ............   ",
"..+@@@@@@@@...  ",
"..@@@@@@@@@...  ",
"..@@@@........  ",
"..@@@@......... ",
"..@@@@@@@@@@@+..",
"..############..",
"..$$$$....$$$$..",
"..%%%%....%%%%..",
"..&&&&&&&&@&&&..",
"..************..",
"..============..",
"..+----------+..",
" .............. ",
"  ............  ",
"  ............  ",
" .............. ",
"...@@@@@@@@@@+..",
"...@@@@@@@@@@@..",
" .........@@@@..",
"  .......+@@@@..",
"      ..+@@@@@..",
"     ..+#####+..",
"    ..+$$$$$+.. ",
"    ..%%%%%+..  ",
"    ..&&&&+..   ",
"    ..****..    ",
"    ..====..    ",
"    ..+--+..    ",
"     ......     ",
"      ....      ",
"  ............  ",
" .............. ",
"..+@@@@@@@@@@+..",
"..@@@@@@@@@@@@..",
"..@@@@....@@@@..",
"..+@@@....@@@+..",
" ..+@@@@@@@@+.. ",
" ..+########+.. ",
"..+$$$....$$$+..",
"..%%%%....%%%%..",
"..&&&&&&&&@&&&..",
"..************..",
"..============..",
"..+----------+..",
" .............. ",
"  ............  ",
"  ............  ",
" .............. ",
"..+@@@@@@@@@@+..",
"..@@@@@@@@@@@@..",
"..@@@@....@@@@..",
"..@@@@....@@@@..",
"..@@@@@@@@@@@@..",
"..+###########..",
" .........$$$$..",
"  ........%%%%..",
"  ..+&&&&&@&&&..",
"  ..**********..",
"  ..==========..",
"  ..+--------+..",
"   ............ ",
"    ..........  "};
