/* XPM */
static char * snake_up_xpm[] = {
"64 64 101 2",
"  	c None",
". 	c #162038",
"+ 	c #151D33",
"@ 	c #131B2F",
"# 	c #384159",
"$ 	c #383F58",
"% 	c #181E30",
"& 	c #1A2236",
"* 	c #2F3951",
"= 	c #353C57",
"- 	c #1F243B",
"; 	c #1D242D",
"> 	c #363E52",
", 	c #555E79",
"' 	c #545B78",
") 	c #3A3F58",
"! 	c #141829",
"~ 	c #171E27",
"{ 	c #2E364A",
"] 	c #545D77",
"^ 	c #555B7B",
"/ 	c #3B3F5B",
"( 	c #1E2235",
"_ 	c #1F2631",
": 	c #000418",
"< 	c #525C76",
"[ 	c #545A7A",
"} 	c #00001C",
"| 	c #16192F",
"1 	c #151F29",
"2 	c #303D50",
"3 	c #525D79",
"4 	c #565E7E",
"5 	c #363A59",
"6 	c #131629",
"7 	c #16222A",
"8 	c #556679",
"9 	c #4C5F78",
"0 	c #4B5672",
"a 	c #4F546B",
"b 	c #1A1A2A",
"c 	c #0D2037",
"d 	c #465A76",
"e 	c #4E5C75",
"f 	c #1E2436",
"g 	c #0E1925",
"h 	c #4B5B78",
"i 	c #546686",
"j 	c #525E77",
"k 	c #161C2C",
"l 	c #142232",
"m 	c #2F3C5C",
"n 	c #525E81",
"o 	c #2D3950",
"p 	c #111C2D",
"q 	c #535F79",
"r 	c #7380A2",
"s 	c #717C9D",
"t 	c #313B4E",
"u 	c #303E59",
"v 	c #717E9E",
"w 	c #6E7999",
"x 	c #59637D",
"y 	c #172231",
"z 	c #14203A",
"A 	c #44527B",
"B 	c #6974A0",
"C 	c #38405F",
"D 	c #121D30",
"E 	c #4F618D",
"F 	c #697DAB",
"G 	c #304260",
"H 	c #0B192D",
"I 	c #0D1826",
"J 	c #5E83AD",
"K 	c #597B9B",
"L 	c #69829C",
"M 	c #314056",
"N 	c #1B1F30",
"O 	c #234361",
"P 	c #67809C",
"Q 	c #6D7C9C",
"R 	c #333851",
"S 	c #0C1B2F",
"T 	c #101E39",
"U 	c #6D7BA4",
"V 	c #575E85",
"W 	c #111C2F",
"X 	c #2A3755",
"Y 	c #6A7AA7",
"Z 	c #4C5781",
"` 	c #2A3E5A",
" .	c #657A9E",
"..	c #3F517D",
"+.	c #2E4252",
"@.	c #6A7E92",
"#.	c #121C24",
"$.	c #727E8A",
"%.	c #13181F",
"&.	c #393F46",
"*.	c #383C3F",
"                                                                                                                                ",
"                                                                                                                                ",
"                                                                                                                                ",
"                                                                                                                                ",
"                                                                                                                                ",
"                                                                                                                                ",
"                                                                                                                                ",
"                                                                                                                                ",
"                                                            . . + +                                                             ",
"                                                            . . + +                                                             ",
"                                                        @ @ # # $ $ % %                                                         ",
"                                                        @ @ # # $ $ % %                                                         ",
"                                                        & & * * = = - -                                                         ",
"                                                        & & * * = = - -                                                         ",
"                                                    ; ; > > , , ' ' ) ) ! !                                                     ",
"                                                    ; ; > > , , ' ' ) ) ! !                                                     ",
"                                                    ~ ~ { { ] ] ^ ^ / / ( (                                                     ",
"                                                    ~ ~ { { ] ] ^ ^ / / ( (                                                     ",
"                                                    _ _ : : < < [ [ } } | |                                                     ",
"                                                    _ _ : : < < [ [ } } | |                                                     ",
"                                                    1 1 2 2 3 3 4 4 5 5 6 6                                                     ",
"                                                    1 1 2 2 3 3 4 4 5 5 6 6                                                     ",
"                                                    7 7 8 8 9 9 0 0 a a b b                                                     ",
"                                                    7 7 8 8 9 9 0 0 a a b b                                                     ",
"                                                        c c d d e e f f                                                         ",
"                                                        c c d d e e f f                                                         ",
"                                                    g g h h i i j j k k                                                         ",
"                                                    g g h h i i j j k k                                                         ",
"                                                    l l m m n n o o                                                             ",
"                                                    l l m m n n o o                                                             ",
"                                                p p q q r r s s t t                                                             ",
"                                                p p q q r r s s t t                                                             ",
"                                                u u v v w w x x y y                                                             ",
"                                                u u v v w w x x y y                                                             ",
"                                            z z A A B B C C D D                                                                 ",
"                                            z z A A B B C C D D                                                                 ",
"                                                E E F F G G H H I I                                                             ",
"                                                E E F F G G H H I I                                                             ",
"                                                    J J K K L L M M N N                                                         ",
"                                                    J J K K L L M M N N                                                         ",
"                                                        O O P P Q Q R R                                                         ",
"                                                        O O P P Q Q R R                                                         ",
"                                                        S S T T U U V V                                                         ",
"                                                        S S T T U U V V                                                         ",
"                                                        W W X X Y Y Z Z                                                         ",
"                                                        W W X X Y Y Z Z                                                         ",
"                                                        ` `  . .....                                                            ",
"                                                        ` `  . .....                                                            ",
"                                                    +.+.@.@.                                                                    ",
"                                                    +.+.@.@.                                                                    ",
"                                                #.#.$.$.                                                                        ",
"                                                #.#.$.$.                                                                        ",
"                                                %.%.&.&.                                                                        ",
"                                                %.%.&.&.                                                                        ",
"                                                    *.*.                                                                        ",
"                                                    *.*.                                                                        ",
"                                                                                                                                ",
"                                                                                                                                ",
"                                                                                                                                ",
"                                                                                                                                ",
"                                                                                                                                ",
"                                                                                                                                ",
"                                                                                                                                ",
"                                                                                                                                "};
