/* XPM */
static char * snake_down_xpm[] = {
"64 64 101 2",
"  	c None",
". 	c #383C3F",
"+ 	c #393F46",
"@ 	c #13181F",
"# 	c #727E8A",
"$ 	c #121C24",
"% 	c #6A7E92",
"& 	c #2E4252",
"* 	c #3F517D",
"= 	c #657A9E",
"- 	c #2A3E5A",
"; 	c #4C5781",
"> 	c #6A7AA7",
", 	c #2A3755",
"' 	c #111C2F",
") 	c #575E85",
"! 	c #6D7BA4",
"~ 	c #101E39",
"{ 	c #0C1B2F",
"] 	c #333851",
"^ 	c #6D7C9C",
"/ 	c #67809C",
"( 	c #234361",
"_ 	c #1B1F30",
": 	c #314056",
"< 	c #69829C",
"[ 	c #597B9B",
"} 	c #5E83AD",
"| 	c #0D1826",
"1 	c #0B192D",
"2 	c #304260",
"3 	c #697DAB",
"4 	c #4F618D",
"5 	c #121D30",
"6 	c #38405F",
"7 	c #6974A0",
"8 	c #44527B",
"9 	c #14203A",
"0 	c #172231",
"a 	c #59637D",
"b 	c #6E7999",
"c 	c #717E9E",
"d 	c #303E59",
"e 	c #313B4E",
"f 	c #717C9D",
"g 	c #7380A2",
"h 	c #535F79",
"i 	c #111C2D",
"j 	c #2D3950",
"k 	c #525E81",
"l 	c #2F3C5C",
"m 	c #142232",
"n 	c #161C2C",
"o 	c #525E77",
"p 	c #546686",
"q 	c #4B5B78",
"r 	c #0E1925",
"s 	c #1E2436",
"t 	c #4E5C75",
"u 	c #465A76",
"v 	c #0D2037",
"w 	c #1A1A2A",
"x 	c #4F546B",
"y 	c #4B5672",
"z 	c #4C5F78",
"A 	c #556679",
"B 	c #16222A",
"C 	c #131629",
"D 	c #363A59",
"E 	c #565E7E",
"F 	c #525D79",
"G 	c #303D50",
"H 	c #151F29",
"I 	c #16192F",
"J 	c #00001C",
"K 	c #545A7A",
"L 	c #525C76",
"M 	c #000418",
"N 	c #1F2631",
"O 	c #1E2235",
"P 	c #3B3F5B",
"Q 	c #555B7B",
"R 	c #545D77",
"S 	c #2E364A",
"T 	c #171E27",
"U 	c #141829",
"V 	c #3A3F58",
"W 	c #545B78",
"X 	c #555E79",
"Y 	c #363E52",
"Z 	c #1D242D",
"` 	c #1F243B",
" .	c #353C57",
"..	c #2F3951",
"+.	c #1A2236",
"@.	c #181E30",
"#.	c #383F58",
"$.	c #384159",
"%.	c #131B2F",
"&.	c #151D33",
"*.	c #162038",
"                                                                                                                                ",
"                                                                                                                                ",
"                                                                                                                                ",
"                                                                                                                                ",
"                                                                                                                                ",
"                                                                                                                                ",
"                                                                                                                                ",
"                                                                                                                                ",
"                                                                        . .                                                     ",
"                                                                        . .                                                     ",
"                                                                        + + @ @                                                 ",
"                                                                        + + @ @                                                 ",
"                                                                        # # $ $                                                 ",
"                                                                        # # $ $                                                 ",
"                                                                    % % & &                                                     ",
"                                                                    % % & &                                                     ",
"                                                            * * = = - -                                                         ",
"                                                            * * = = - -                                                         ",
"                                                        ; ; > > , , ' '                                                         ",
"                                                        ; ; > > , , ' '                                                         ",
"                                                        ) ) ! ! ~ ~ { {                                                         ",
"                                                        ) ) ! ! ~ ~ { {                                                         ",
"                                                        ] ] ^ ^ / / ( (                                                         ",
"                                                        ] ] ^ ^ / / ( (                                                         ",
"                                                        _ _ : : < < [ [ } }                                                     ",
"                                                        _ _ : : < < [ [ } }                                                     ",
"                                                            | | 1 1 2 2 3 3 4 4                                                 ",
"                                                            | | 1 1 2 2 3 3 4 4                                                 ",
"                                                                5 5 6 6 7 7 8 8 9 9                                             ",
"                                                                5 5 6 6 7 7 8 8 9 9                                             ",
"                                                            0 0 a a b b c c d d                                                 ",
"                                                            0 0 a a b b c c d d                                                 ",
"                                                            e e f f g g h h i i                                                 ",
"                                                            e e f f g g h h i i                                                 ",
"                                                            j j k k l l m m                                                     ",
"                                                            j j k k l l m m                                                     ",
"                                                        n n o o p p q q r r                                                     ",
"                                                        n n o o p p q q r r                                                     ",
"                                                        s s t t u u v v                                                         ",
"                                                        s s t t u u v v                                                         ",
"                                                    w w x x y y z z A A B B                                                     ",
"                                                    w w x x y y z z A A B B                                                     ",
"                                                    C C D D E E F F G G H H                                                     ",
"                                                    C C D D E E F F G G H H                                                     ",
"                                                    I I J J K K L L M M N N                                                     ",
"                                                    I I J J K K L L M M N N                                                     ",
"                                                    O O P P Q Q R R S S T T                                                     ",
"                                                    O O P P Q Q R R S S T T                                                     ",
"                                                    U U V V W W X X Y Y Z Z                                                     ",
"                                                    U U V V W W X X Y Y Z Z                                                     ",
"                                                        ` `  . .....+.+.                                                        ",
"                                                        ` `  . .....+.+.                                                        ",
"                                                        @.@.#.#.$.$.%.%.                                                        ",
"                                                        @.@.#.#.$.$.%.%.                                                        ",
"                                                            &.&.*.*.                                                            ",
"                                                            &.&.*.*.                                                            ",
"                                                                                                                                ",
"                                                                                                                                ",
"                                                                                                                                ",
"                                                                                                                                ",
"                                                                                                                                ",
"                                                                                                                                ",
"                                                                                                                                ",
"                                                                                                                                "};
