/* XPM */
static char * snake_left_xpm[] = {
"64 64 91 1",
" 	c None",
".	c #5C608C",
"+	c #51568B",
"@	c #515083",
"#	c #56547E",
"$	c #363D49",
"%	c #545B6B",
"&	c #545A6F",
"*	c #535B71",
"=	c #515B75",
"-	c #505B79",
";	c #4D5877",
">	c #2E3957",
",	c #333659",
"'	c #6B7BAA",
")	c #4A5988",
"!	c #1A1E41",
"~	c #535776",
"{	c #6F7F9C",
"]	c #485E7B",
"^	c #191A2C",
"/	c #373C45",
"(	c #313544",
"_	c #35394C",
":	c #343A4E",
"<	c #343952",
"[	c #313A56",
"}	c #000426",
"|	c #46577A",
"1	c #304164",
"2	c #4E5F83",
"3	c #4A5B7E",
"4	c #4D5E81",
"5	c #6B7DA0",
"6	c #61779B",
"7	c #28466C",
"8	c #515A84",
"9	c #687DA8",
"0	c #25385D",
"a	c #141A31",
"b	c #1B2134",
"c	c #26374F",
"d	c #425973",
"e	c #6C829F",
"f	c #333851",
"g	c #191A23",
"h	c #13141D",
"i	c #353842",
"j	c #353744",
"k	c #333748",
"l	c #2D394E",
"m	c #2A3B50",
"n	c #2E3F55",
"o	c #506177",
"p	c #4B5C72",
"q	c #687F9C",
"r	c #5F7FAB",
"s	c #6081B1",
"t	c #3E5A83",
"u	c #284063",
"v	c #4A5F83",
"w	c #6D81A3",
"x	c #4B6181",
"y	c #12233B",
"z	c #19202C",
"A	c #131723",
"B	c #1B1A21",
"C	c #181920",
"D	c #191A21",
"E	c #181B23",
"F	c #121B26",
"G	c #0E1D28",
"H	c #0B1924",
"I	c #2A3944",
"J	c #283B50",
"K	c #46628B",
"L	c #617DAF",
"M	c #657FAD",
"N	c #5F79A0",
"O	c #6C82A3",
"P	c #485D78",
"Q	c #122339",
"R	c #071432",
"S	c #526185",
"T	c #536382",
"U	c #53607C",
"V	c #536075",
"W	c #172233",
"X	c #191F34",
"Y	c #333949",
"Z	c #1C212D",
"                                                                ",
"                                                                ",
"                                                                ",
"                                                                ",
"                                                                ",
"                                                                ",
"                                                                ",
"                                                                ",
"                                                                ",
"                                                                ",
"                                                                ",
"                                                                ",
"                                                                ",
"                                                                ",
"                                                                ",
"                                                                ",
"                                                                ",
"                                                                ",
"                                                                ",
"                                                                ",
"                                                                ",
"                                                                ",
"                                                                ",
"                                                                ",
"                                                                ",
"                                                                ",
"                                          ..++@@##              ",
"                                          ..++@@##              ",
"    $$%%&&**==--;;>>                    ,,''))!!~~{{]]      ^^  ",
"    $$%%&&**==--;;>>                    ,,''))!!~~{{]]      ^^  ",
"  //((__::<<[[}}||11223344556677        889900aabbccddee{{ff    ",
"  //((__::<<[[}}||11223344556677        889900aabbccddee{{ff    ",
"  gghhiijjjjkkllmmmmmmnnooppqqrrssttuuvvwwxxyy        zzAA      ",
"  gghhiijjjjkkllmmmmmmnnooppqqrrssttuuvvwwxxyy        zzAA      ",
"    BBCCDDBBEEFFGGGGGGHHIIGGJJKKLLMMNNOOPPQQ                    ",
"    BBCCDDBBEEFFGGGGGGHHIIGGJJKKLLMMNNOOPPQQ                    ",
"                              RRSSTTUUVVWW                      ",
"                              RRSSTTUUVVWW                      ",
"                                  XXYYZZ                        ",
"                                  XXYYZZ                        ",
"                                                                ",
"                                                                ",
"                                                                ",
"                                                                ",
"                                                                ",
"                                                                ",
"                                                                ",
"                                                                ",
"                                                                ",
"                                                                ",
"                                                                ",
"                                                                ",
"                                                                ",
"                                                                ",
"                                                                ",
"                                                                ",
"                                                                ",
"                                                                ",
"                                                                ",
"                                                                ",
"                                                                ",
"                                                                ",
"                                                                ",
"                                                                "};
