/* XPM */
static char * snake_right_xpm[] = {
"64 64 91 1",
" 	c None",
".	c #56547E",
"+	c #515083",
"@	c #51568B",
"#	c #5C608C",
"$	c #191A2C",
"%	c #485E7B",
"&	c #6F7F9C",
"*	c #535776",
"=	c #1A1E41",
"-	c #4A5988",
";	c #6B7BAA",
">	c #333659",
",	c #2E3957",
"'	c #4D5877",
")	c #505B79",
"!	c #515B75",
"~	c #535B71",
"{	c #545A6F",
"]	c #545B6B",
"^	c #363D49",
"/	c #333851",
"(	c #6C829F",
"_	c #425973",
":	c #26374F",
"<	c #1B2134",
"[	c #141A31",
"}	c #25385D",
"|	c #687DA8",
"1	c #515A84",
"2	c #28466C",
"3	c #61779B",
"4	c #6B7DA0",
"5	c #4D5E81",
"6	c #4A5B7E",
"7	c #4E5F83",
"8	c #304164",
"9	c #46577A",
"0	c #000426",
"a	c #313A56",
"b	c #343952",
"c	c #343A4E",
"d	c #35394C",
"e	c #313544",
"f	c #373C45",
"g	c #131723",
"h	c #19202C",
"i	c #12233B",
"j	c #4B6181",
"k	c #6D81A3",
"l	c #4A5F83",
"m	c #284063",
"n	c #3E5A83",
"o	c #6081B1",
"p	c #5F7FAB",
"q	c #687F9C",
"r	c #4B5C72",
"s	c #506177",
"t	c #2E3F55",
"u	c #2A3B50",
"v	c #2D394E",
"w	c #333748",
"x	c #353744",
"y	c #353842",
"z	c #13141D",
"A	c #191A23",
"B	c #122339",
"C	c #485D78",
"D	c #6C82A3",
"E	c #5F79A0",
"F	c #657FAD",
"G	c #617DAF",
"H	c #46628B",
"I	c #283B50",
"J	c #0E1D28",
"K	c #2A3944",
"L	c #0B1924",
"M	c #121B26",
"N	c #181B23",
"O	c #1B1A21",
"P	c #191A21",
"Q	c #181920",
"R	c #172233",
"S	c #536075",
"T	c #53607C",
"U	c #536382",
"V	c #526185",
"W	c #071432",
"X	c #1C212D",
"Y	c #333949",
"Z	c #191F34",
"                                                                ",
"                                                                ",
"                                                                ",
"                                                                ",
"                                                                ",
"                                                                ",
"                                                                ",
"                                                                ",
"                                                                ",
"                                                                ",
"                                                                ",
"                                                                ",
"                                                                ",
"                                                                ",
"                                                                ",
"                                                                ",
"                                                                ",
"                                                                ",
"                                                                ",
"                                                                ",
"                                                                ",
"                                                                ",
"                                                                ",
"                                                                ",
"                                                                ",
"                                                                ",
"              ..++@@##                                          ",
"              ..++@@##                                          ",
"  $$      %%&&**==--;;>>                    ,,''))!!~~{{]]^^    ",
"  $$      %%&&**==--;;>>                    ,,''))!!~~{{]]^^    ",
"    //&&((__::<<[[}}||11        223344556677889900aabbccddeeff  ",
"    //&&((__::<<[[}}||11        223344556677889900aabbccddeeff  ",
"      gghh        iijjkkllmmnnooppqqrrssttuuuuuuvvwwxxxxyyzzAA  ",
"      gghh        iijjkkllmmnnooppqqrrssttuuuuuuvvwwxxxxyyzzAA  ",
"                    BBCCDDEEFFGGHHIIJJKKLLJJJJJJMMNNOOPPQQOO    ",
"                    BBCCDDEEFFGGHHIIJJKKLLJJJJJJMMNNOOPPQQOO    ",
"                      RRSSTTUUVVWW                              ",
"                      RRSSTTUUVVWW                              ",
"                        XXYYZZ                                  ",
"                        XXYYZZ                                  ",
"                                                                ",
"                                                                ",
"                                                                ",
"                                                                ",
"                                                                ",
"                                                                ",
"                                                                ",
"                                                                ",
"                                                                ",
"                                                                ",
"                                                                ",
"                                                                ",
"                                                                ",
"                                                                ",
"                                                                ",
"                                                                ",
"                                                                ",
"                                                                ",
"                                                                ",
"                                                                ",
"                                                                ",
"                                                                ",
"                                                                ",
"                                                                "};
