/* XPM */
static char * trees_xpm[] = {
"64 64 113 2",
"  	c #7D955B",
". 	c #83A76A",
"+ 	c #979B9C",
"@ 	c #6A865B",
"# 	c #A1ABAD",
"$ 	c #62765A",
"% 	c #204F2C",
"& 	c #73957E",
"* 	c #426C4E",
"= 	c #70917A",
"- 	c #578263",
"; 	c #568966",
"> 	c #789B84",
", 	c #265D35",
"' 	c #447351",
") 	c #6F9A7D",
"! 	c #1C4628",
"~ 	c #20502D",
"{ 	c #235731",
"] 	c #41694C",
"^ 	c #598F68",
"/ 	c #336240",
"( 	c #6F977B",
"_ 	c #568463",
": 	c #245A33",
"< 	c #577F62",
"[ 	c #3E6248",
"} 	c #5C8A69",
"| 	c #235631",
"1 	c #29633A",
"2 	c #204E2C",
"3 	c #21532E",
"4 	c #568564",
"5 	c #599069",
"6 	c #74A081",
"7 	c #40674B",
"8 	c #58956B",
"9 	c #74A283",
"0 	c #5D8669",
"a 	c #3F5E48",
"b 	c #3F6549",
"c 	c #5F8D6C",
"d 	c #88A392",
"e 	c #385040",
"f 	c #5E926D",
"g 	c #374C3E",
"h 	c #71957C",
"i 	c #3E6147",
"j 	c #374E3F",
"k 	c #1E4A2A",
"l 	c #3D5E46",
"m 	c #6C8374",
"n 	c #3D5D45",
"o 	c #60886B",
"p 	c #699175",
"q 	c #395541",
"r 	c #395241",
"s 	c #1B4226",
"t 	c #6F9C7D",
"u 	c #16331F",
"v 	c #617D69",
"w 	c #3B5B44",
"x 	c #1E4929",
"y 	c #193C23",
"z 	c #1E4B2A",
"A 	c #183722",
"B 	c #193E24",
"C 	c #183822",
"D 	c #6A8A74",
"E 	c #6A8B74",
"F 	c #6F9E7D",
"G 	c #193B23",
"H 	c #1A3F25",
"I 	c #173520",
"J 	c #3B5242",
"K 	c #183821",
"L 	c #566E5E",
"M 	c #728A7A",
"N 	c #3A5843",
"O 	c #799B62",
"P 	c #6F8E5A",
"Q 	c #163320",
"R 	c #142E1D",
"S 	c #748A54",
"T 	c #6C814F",
"U 	c #6A7F4D",
"V 	c #142F1D",
"W 	c #132C1B",
"X 	c #132C1C",
"Y 	c #122B1B",
"Z 	c #5A724D",
"` 	c #2D2827",
" .	c #35302E",
"..	c #36312F",
"+.	c #3A3433",
"@.	c #3B3634",
"#.	c #262221",
"$.	c #53644C",
"%.	c #6F8551",
"&.	c #393330",
"*.	c #453F3C",
"=.	c #4A4542",
"-.	c #4F6544",
";.	c #596B41",
">.	c #5E7144",
",.	c #5E7751",
"'.	c #3A3430",
").	c #494440",
"!.	c #514B47",
"~.	c #4B6041",
"{.	c #5E784C",
"].	c #627547",
"^.	c #465440",
"          . .                             . .                 + +         . .                             . .                   ",
"@ @                 .           @ @                 .         # # @                 .           @ @                 .           ",
"@ $ @                           @ $ @                       + # # + @                           @ $ @                           ",
"  @ @                             @ @                       # # # # @                             @ @                           ",
"              . .                             . .           # # # #           . .                             . .               ",
"              . .                             . .         # # # # # #         . .                             . .               ",
"    @ @                             @ @                 + # # # # # # +                             @ @                         ",
"    @ $ @           .       . .     @ $ @           .   # # # # # # # # @           .       . .     @ $ @           .       . . ",
"      @ @   @ @                       @ @   @ @   % % & # + # # # # * + # = % @                       @ @   @ @                 ",
"            @ @   @ @                   + + @ @   - ; > * * + # # + * , ' ) - @   @ + +                     @ @   @ @           ",
"  .               @ $ @           .     # #   ! ! ~ % { ] ^ / ( ( / _ : { % ~ ! ! @ # #           .               @ $ @         ",
"                    @ @               + # # + < < ~ ~ [ , , { } } { , , % ~ ~ < < + # # +                           @ @         ",
"                            @ @       # # # # | ~ ~ ~ 1 , : { , , { : , 1 ~ ~ ~ | # # # #   @ @                             @ @ ",
"          . .                         # # # # 2 3 ~ 4 , : { : , , : { : , 4 ~ 3 2 # # # #                 . .                   ",
"@ @                 .           @ @ # # # # # # 2 < - { % { : 4 5 : { % { : < 2 # # # # # #     @ @                 .           ",
"@ $ @                           @ + # # # # # # + 3 ~ ~ ~ % : 4 6 : % ~ ~ ~ 3 + # # # # # # +   @ $ @                           ",
"          . .                     # # # # # # # # 7 3 3 ~ ~ { 8 9 { ~ ~ 3 3 7 # # # # # # # #             . .                   ",
"@ @                 .       % % & # + # # # # * + # = % 3 ~ % , , % ~ 3 % % & # + # # # # * + # = %                 .           ",
"@ $ @                       - ; > * * + # # + * , ' ) - | 3 ~ , , ~ 3 | - ; > * * + # # + * , ' ) - @                           ",
"  @ @                   ! ! ~ % { ] ^ / ( ( / _ : { % ~ ! ! ~ 2 2 ~ ! ! ~ % { ] ^ / ( ( / _ : { % ~ ! !                         ",
"              . .     ! < < ~ ~ [ , , { } } { , , % ~ ~ < < ! ~ ~ ! < < ~ ~ [ , , { } } { , , % ~ ~ < < !     . .               ",
"              . .   ! < | ~ ~ ~ 1 , : { , , { : , 1 ~ ~ ~ | < ! ! < | ~ ~ ~ 1 , : { , , { : , 1 ~ ~ ~ | < !   . .               ",
"    @ @               ! 2 3 ~ 4 , : { : , , : { : , 4 ~ 3 2 ! 7 0 ! 2 3 ~ 4 , : { : , , : { : , 4 ~ 3 2 !                       ",
"    @ $ @           .   a 2 < - { % { : 4 5 : { % { : < 2 ! b c d b a 2 < - { % { : 4 5 : { % { : < 2 ! @           .       . . ",
"      @ @   @ @       a 2 | 3 ~ ~ ~ % : 4 6 : % ~ ~ ~ 3 | 2 ! + + a 2 | 3 ~ ~ ~ % : 4 6 : % ~ ~ ~ 3 | 2 !   @ @                 ",
"            @ @   @ a 7 | | 7 3 3 ~ ~ { 8 9 { ~ ~ 3 3 7 | | 7 a a 7 | | 7 3 3 ~ ~ { 8 9 { ~ ~ 3 3 7 | | 7 a @ @   @ @           ",
"  .           e e e + 7 * 7 7 | ~ 3 ~ % , , % ~ 3 ~ | 7 7 e e e + 7 * 7 7 | ~ 3 ~ % , , % ~ 3 ~ | 7 7 * 7 + e e e @ $ @         ",
"              e # # + f + 7 | 3 | | 3 ~ , , ~ 3 | | 3 | 7 e # # + f + 7 | 3 | | 3 ~ , , ~ 3 | | 3 | 7 + f + # # e   @ @         ",
"          g h # # # # + c b i | | | | ~ 2 2 ~ | | | | g h # # # # + c b i | | | | ~ 2 2 ~ | | | | i b c + # # # # h g       @ @ ",
"          g j + + + + + + + + 7 7 7 | 3 ~ ~ 3 | 7 7 7 g j + + + + + + + + 7 7 7 | 3 ~ ~ 3 | 7 7 7 + + + + + + + + j g           ",
"@ @       g g e k k k k k l + c * 7 7 3 ~ ~ 3 7 7 * c g g e k k k k k l + c * 7 7 3 ~ ~ 3 7 7 * c + l k k k k k e g g           ",
"@ $ @   m + + n % o o [ % k + + * 7 p 3 7 0 3 p 7 * m + + n % o o [ % k + + * 7 p 3 7 0 3 p 7 * + + k % [ o o % n + + m         ",
"          + + q r s [ % k k + # + c t b c d b t c + # + + q r s [ % k k + # + c t b c d b t c + # + k k % [ s r q + +           ",
"@ @       u + v q w s s s x + # # # # + + + + # # # # u + v q w s s s x + # # # # + + + + # # # # + x s s s w q v + u           ",
"@ $ @     u u + q y ! ! s % k # # # + z k k z + # # # u u + q y ! ! s % k # # # + z k k z + # # # k % s ! ! y q + u u           ",
"  @ @       u A B B C s s [ % t # # D k x x k D # # t % u A B B C s s [ % t # # D k x x k D # # t % [ s s C B B A u             ",
"            A A B q s s s x [ E F E % % x x % % E F E [ A A B q s s s x [ E F E % % x x % % E F E [ x s s s q B A A             ",
"        A A A A G H ! ! ! s [ o E o [ % x x % [ o E A A A A G H ! ! ! s [ o E o [ % x x % [ o E o [ s ! ! ! H G A A A A         ",
"    A A A A A e A w w [ ! s x [ [ [ x s s s s x A A A A A e A w w [ ! s x [ [ [ x s s s s x [ [ [ x s ! [ w w A A A A A A A     ",
"    @ A A A A I J + o w w s s [ [ s s s s s s s s A A A A I J + o w w s s [ [ s s s s s s s s [ [ s s w w o + J I A A A A   . . ",
"      @ I I I j r + + + w s ! x s s ! s s s s ! s s I I I j r + + + w s ! x s s ! s s s s ! s s x ! s w + + + r I I I I         ",
"      A A A A A K B B B G ! ! ! s s ! w ! ! w ! s A A A A A K B B B G ! ! ! s s ! w ! ! w ! s s ! ! ! G B B B K A A A A A       ",
"  . u u I A A A L B B B B B B B y s w w % % w w u u I A A A L B B B B B B B y s w w % % w w s y B B B B B B B B A A A I u u     ",
"  u u u u u A A M L B B B B B B B s N + [ [ + u u u u u A A M L B B B B B B B s N + [ [ + N s B B B B B B B B B A A u u u u u   ",
"u u A A u u u A M M q q q B B B B G s + + + u u A A u u u A M M q q q B B B B G s + + + + s G B B B B q q B B B A u u u A A u u ",
"u u u u u u u u u A A I G B B q q B B G + + u u u u u u u u u A A I G B B q q B B G + + G B B q q B B G I A A u u u u u u u u u ",
"@ @ u u u u u u u A B A I A A A I B B B G G B B u u u u u u u A B A I A A A I B B B G G B B B I A A A I A B A u u u u u u u     ",
"@ $ @   u u u u u I B A I A A A A G q B B B B q G A u u u u u I B A I A A A A G q B B B B q G A A A A I A B I u u u u u         ",
"          u u u u u A I I A A A A A G v q q v G A A A u u u u u A I I A A A A A G v q q v G A A A A A I I A u u u u u           ",
"@ @       u u A u u A I A A B A A A A I v v I A A A A u u A u u A I A A B A A A A I v v I A A A A B A A I A u u A u u           ",
"@ $ @   u u A u u u I I A B B A A A A A I I A A A A u u A u u u I I A B B A A A A A I I A A A A A B B A I I u u u A u u         ",
"  @ @ u u u u u u u u A A B A A A A I u u u u I A u u u u u u u u A A B A A A A I u u u u I A A A A B A A u u u u u u u u       ",
"      u u u u u u u u A A A A I u u u u u u u u u u u u u u u u u A A A A I u u u u u u u u u u I A A A A u u u u u u u u       ",
"              O P u u A A I u u u u u u u u u u u u u u I Q R u u A A I u u u u u u u u u u u u u u I A A u u P O               ",
"    @ @     S T U u u I u u u u u u u u u u u u u u u u V W X u u I u u u u u u u u u u u u u u u u u u I u u U T S             ",
"    @ $ @ S U U U u u u u A u u u u u u u u u u u u u V R Y Y u u u u A u u u u u u u u u u u u u u A u u u u U U U O       . . ",
"      @ @ S Z Z U U u u A A u u u u u ` ` ` ` u u u u V R R Y Y u u A A u u u u u ` ` ` ` u u u u u A A u u Z Z U U S           ",
"        U U Z Z U Z u u A u u u u ` ` ` ` ` ` ` ` u Y Y Y R Y Y u u A u u u u ` ` ` ` ` ` ` ` u u u u A u u Z Z U Z Z U         ",
"  .     U U U U U Z u u u u u `  ...+.@.@.+.+.+... .#.Y Y Y Y Y u u u u u `  ...+.@.@.+.+.+... .` u u u u u U U U Z $.Z         ",
"          %.U U U U u u U U U `  .&.*.=.=.*.*.*.&. .` -.;.;.Y Y u u ;.;.>.`  .&.*.=.=.*.*.*.&. .` U U U u u U U U U ,.@         ",
"        U U U U U U U U U U Z `  .'.).!.!.).).).'. .#.;.;.;.~.~.;.;.;.;.;.`  .'.).!.!.).).).'. .` U U U U U U U U U U U     @ @ ",
"        U P P U U U U U U U U U ` '.).!.).).).).'.` ;.;.;.;.;.;.;.;.;.;.;.{.` '.).!.).).).).'.` U U U U U P P U U U U U         ",
"@ @       S U U U U P U U U U U Z ` ` ).).).).` ` U P ].;.;.;.;.~.~.;.;.].U U ` ` ).).).).` ` U Z Z U U U U U U U U O           ",
"@ $ @           U U U U U U U U Z $.Z ` ` ` ` U U U U U U U ;.;.~.^.Z U U U U U U ` ` ` ` U U U Z $.Z U U U U U                 "};
