/* XPM */
static char * water_xpm[] = {
"64 64 30 1",
" 	c #7D955B",
".	c #83A76A",
"+	c #6A865B",
"@	c #62765A",
"#	c #7C9560",
"$	c #6A9991",
"%	c #589CAC",
"&	c #489EBD",
"*	c #3D9FC5",
"=	c #3B9FC6",
"-	c #56AFD1",
";	c #88B5F9",
">	c #57AFD0",
",	c #699992",
"'	c #4B9DBA",
")	c #607967",
"!	c #5495A2",
"~	c #5F9BA2",
"{	c #7A9668",
"]	c #ABD0BD",
"^	c #4DA0BB",
"/	c #5CACC7",
"(	c #70A097",
"_	c #6AA4AA",
":	c #459BBA",
"<	c #5B9192",
"[	c #6EA496",
"}	c #5BA2AF",
"|	c #5DAEC8",
"1	c #698760",
"     ..              ..              ..              ..         ",
"++        .     ++        .     ++        .     ++        .     ",
"+@+             +@+             +@+             +@+             ",
" ++              ++              ++              ++             ",
"       ..              ..              ..              ..       ",
"       ..              ..              ..              ..       ",
"  ++              ++              ++              ++            ",
"  +@+     .   ..  +@+     .   ..  +@+     .   ..  +@+     .   ..",
"   ++ ++     #$%&*==-===;---;;-=====-===;---;;>&%$#++ ++        ",
"      ++ ++ ,'=;===-======;====;===-======;====;==',  ++ ++     ",
" .       +)!====---=====-;======---=====-;======--==~{   +@+    ",
"          !======;-===--=========;-===--=========;-==~    ++    ",
"         ,===-;;]-====;======-;;]-====;======-;;]-====,       ++",
"     .. #'=======]-=-;--====;-===]-=-;--====;-===]-===^#        ",
"++      $=;--===--;]-====-;--===--;]-====-;--===--;]-==$  .     ",
"+@+     %========;======-========;======-========;=====%        ",
"     .. /======-;=======-======-;=======-======-;======&        ",
"++      *======;-======-=======;-======-=======;-======>  .     ",
"+@+     ======-===============-===============-=========        ",
" ++     ;====;=========;;====;=========;;====;=========;        ",
"       .=-;;-======-;]-==-;;-======-;]-==-;;-======-;]-=.       ",
"       .=====-;-==-]-========-;-==-]-========-;-==-]-===.       ",
"  ++    ========;;==--==========;;==--==========;;==--==        ",
"  +@+   =======-=====;-;=======-=====;-;=======-=====;-;  .   ..",
"   ++ ++;---;;-=====-===;---;;-=====-===;---;;-=====-===        ",
"      ++==;====;===-======;====;===-======;====;===-==== ++     ",
" .      -;======---=====-;======---=====-;======---===== +@+    ",
"        =========;-===--=========;-===--=========;-===--  ++    ",
"        =====-;;]-====;======-;;]-====;======-;;]-====;=      ++",
"     .. ====;-===]-=-;--====;-===]-=-;--====;-===]-=-;--        ",
"++      =-;--===--;]-====-;--===--;]-====-;--===--;]-===  .     ",
"+@+     -========;======-========;======-========;======        ",
"     .. -======-;=======-======-;=======-======-;=======        ",
"++      =======;-======-=======;-======-=======;-======-  .     ",
"+@+     ======-===============-===============-=========        ",
" ++     ;====;=========;;====;=========;;====;=========;        ",
"       .=-;;-======-;]-==-;;-======-;]-==-;;-======-;]-=.       ",
"       .=====-;-==-]-========-;-==-]-========-;-==-]-===.       ",
"  ++    ========;;==--==========;;==--==========;;==--==        ",
"  +@+   =======-=====;-;=======-=====;-;=======-=====;-;  .   ..",
"   ++ ++;---;;-=====-===;---;;-=====-===;---;;-=====-===        ",
"      ++==;====;===-======;====;===-======;====;===-==== ++     ",
" .      -;======---=====-;======---=====-;======---===== +@+    ",
"        =========;-===--=========;-===--=========;-===--  ++    ",
"        =====-;;]-====;======-;;]-====;======-;;]-====;=      ++",
"     .. ====;-===]-=-;--====;-===]-=-;--====;-===]-=-;--        ",
"++      *-;--===--;]-====-;--===--;]-====-;--===--;]-==*  .     ",
"+@+     /========;======-========;======-========;=====&        ",
"     .. %======-;=======-======-;=======-======-;======%        ",
"++      $======;-======-=======;-======-=======;-======(  .     ",
"+@+     #'====-===============-===============-======='#        ",
" ++      ,=============;;====;=========;;====;========,         ",
"       .. _-=======-;]-==-;;-======-;]-==-;;-======--_ ..       ",
"       .. {~===-==-]-========-;-==-]-========-;-==--_{ ..       ",
"  ++        ,'==;;==--==========;;==--============:<            ",
"  +@+     .  #[}&*===;-;=======-=====;-;======*|%$1@+     .   ..",
"   ++ ++           ++ ++           ++ ++           ++ ++        ",
"      ++ ++           ++ ++           ++ ++           ++ ++     ",
" .       +@+     .       +@+     .       +@+     .       +@+    ",
"          ++              ++              ++              ++    ",
"              ++              ++              ++              ++",
"     ..              ..              ..              ..         ",
"++        .     ++        .     ++        .     ++        .     ",
"+@+             +@+             +@+             +@+             "};
